# xmcd
#
# Track frame offsets:
#	150
#	20429
#	44872
#	70892
#	87134
#	113500
#	120984
#	129504
#	141940
#	167502
#	188409
#	211171
#	232270
#	250807
#	277498
#
# Disc length: 3899 seconds
#
# Revision: 1
# Processed by: cddbd v1.5.1PL2 Copyright (c) Steve Scherf et al.
# Submitted via: EasyCDDAExtractor 9.0.0.1
#
DISCID=d60f390f
DTITLE=Ozzy Osbourne - Stabler Arena Bethlehem 01-04-82 Upgrade
DYEAR=1982
DGENRE=Hard Rock
TTITLE0=Mr Crowley
TTITLE1=Crazy Train
TTITLE2=Revelation (Mother Earth )
TTITLE3=Steal Away (The Night)
TTITLE4=Suicide Solution
TTITLE5=Guitar Solo
TTITLE6=Jam
TTITLE7=Drum Solo
TTITLE8=Goodbye To Romance
TTITLE9=I Don't Know
TTITLE10=Believer
TTITLE11=Flying High Again
TTITLE12=Iron Man
TTITLE13=Children Of The Grave
TTITLE14=Paranoid
EXTD=
EXTT0=
EXTT1=
EXTT2=
EXTT3=
EXTT4=
EXTT5=
EXTT6=
EXTT7=
EXTT8=
EXTT9=
EXTT10=
EXTT11=
EXTT12=
EXTT13=
EXTT14=
PLAYORDER=
